<svg fill="none" height="30" viewBox="0 0 24 24" width="30" xmlns="http://www.w3.org/2000/svg"><g clip-rule="evenodd" fill="#47495f" fill-rule="evenodd"><path d="m3.5 4c0-.27614.22386-.5.5-.5h3c.27614 0 .5.22386.5.5s-.22386.5-.5.5h-2.5v2.5c0 .27614-.22386.5-.5.5s-.5-.22386-.5-.5z"/><path d="m20 3.5c.2761 0 .5.22386.5.5v3c0 .27614-.2239.5-.5.5s-.5-.22386-.5-.5v-2.5h-2.5c-.2761 0-.5-.22386-.5-.5s.2239-.5.5-.5z"/><path d="m4 20.5c-.27614 0-.5-.2239-.5-.5v-3c0-.2761.22386-.5.5-.5s.5.2239.5.5v2.5h2.5c.27614 0 .5.2239.5.5s-.22386.5-.5.5z"/><path d="m20.5 20c0 .2761-.2239.5-.5.5h-3c-.2761 0-.5-.2239-.5-.5s.2239-.5.5-.5h2.5v-2.5c0-.2761.2239-.5.5-.5s.5.2239.5.5z"/><path d="m7.5 11c0-2.48528 2.01472-4.5 4.5-4.5 2.4853 0 4.5 2.01472 4.5 4.5v2c0 2.4853-2.0147 4.5-4.5 4.5-2.48528 0-4.5-2.0147-4.5-4.5zm4.5-3.5c-1.933 0-3.5 1.567-3.5 3.5v2c0 1.933 1.567 3.5 3.5 3.5s3.5-1.567 3.5-3.5v-2c0-1.933-1.567-3.5-3.5-3.5z"/><path d="m10 13.5c.2761 0 .5.2239.5.5l.0003.0027s.0011.0046.0031.0095c.004.0098.0137.0283.0355.0541.0456.0539.1312.1239.2705.1936.2789.1394.6991.2401 1.1906.2401s.9117-.1007 1.1906-.2401c.1393-.0697.2249-.1397.2705-.1936.0218-.0258.0315-.0443.0355-.0541.002-.0049.0031-.0095.0031-.0095l.0003-.0027c0-.2761.2239-.5.5-.5s.5.2239.5.5c0 .5676-.4471.9468-.8622 1.1543-.445.2225-1.0247.3457-1.6378.3457s-1.1928-.1232-1.6378-.3457c-.4151-.2075-.8622-.5867-.8622-1.1543 0-.2761.22386-.5.5-.5z"/></g></svg>